HIERARCHY
ROOT Hips
{
	OFFSET 0.000000 83.214638 0.000000
	CHANNELS 6 Xposition Yposition Zposition Xrotation Yrotation Zrotation
	JOINT Pelvis
	{
		OFFSET 0.000000 0.000000 0.000000
		CHANNELS 3 Xrotation Yrotation Zrotation
		JOINT LeftUpLeg
		{
			OFFSET 8.479700 -4.795502 -0.379100
			CHANNELS 3 Xrotation Yrotation Zrotation
			JOINT LeftLeg
			{
				OFFSET 0.024144 -32.555107 0.112900
				CHANNELS 3 Xrotation Yrotation Zrotation
				JOINT LeftFoot
				{
					OFFSET -0.024144 -32.638630 -3.012600
					CHANNELS 3 Xrotation Yrotation Zrotation
					JOINT LeftToeBase
					{
						OFFSET 0.970200 -13.225400 11.864200
						CHANNELS 3 Xrotation Yrotation Zrotation
						End Site
						{
							OFFSET 0.000000 12.319262 0.000000
						}
					}
					JOINT LFootTongue
					{
						OFFSET 1.142400 -1.059800 6.665200
						CHANNELS 3 Xrotation Yrotation Zrotation
						End Site
						{
							OFFSET 0.000000 12.319262 0.000000
						}
					}
				}
				JOINT LeftPantLeg
				{
					OFFSET 0.918482 -16.533964 -2.284700
					CHANNELS 3 Xrotation Yrotation Zrotation
					End Site
					{
						OFFSET 0.350399 24.744368 0.000000
					}
				}
			}
		}
		JOINT RightUpLeg
		{
			OFFSET -8.479700 -4.795502 -0.379100
			CHANNELS 3 Xrotation Yrotation Zrotation
			JOINT RightLeg
			{
				OFFSET -0.023144 -32.555092 0.112900
				CHANNELS 3 Xrotation Yrotation Zrotation
				JOINT RightFoot
				{
					OFFSET 0.023144 -32.638641 -3.012700
					CHANNELS 3 Xrotation Yrotation Zrotation
					JOINT RightToeBase
					{
						OFFSET -0.970200 -13.225400 11.864200
						CHANNELS 3 Xrotation Yrotation Zrotation
						End Site
						{
							OFFSET 0.000000 12.319244 0.000000
						}
					}
					JOINT RFootTongue
					{
						OFFSET -1.142200 -1.059800 6.665200
						CHANNELS 3 Xrotation Yrotation Zrotation
						End Site
						{
							OFFSET 0.000000 12.319243 0.000000
						}
					}
				}
				JOINT RightPantLeg
				{
					OFFSET -0.919482 -16.533978 -2.284800
					CHANNELS 3 Xrotation Yrotation Zrotation
					End Site
					{
						OFFSET -0.350400 24.744419 0.000000
					}
				}
			}
		}
	}
	JOINT Spine
	{
		OFFSET 0.000000 7.722000 1.166200
		CHANNELS 3 Xrotation Yrotation Zrotation
		JOINT Spine1
		{
			OFFSET 0.000000 12.024101 0.248800
			CHANNELS 3 Xrotation Yrotation Zrotation
			JOINT Spine2
			{
				OFFSET 0.000000 11.502998 -0.491200
				CHANNELS 3 Xrotation Yrotation Zrotation
				JOINT Neck
				{
					OFFSET 0.000000 18.430702 -3.123100
					CHANNELS 3 Xrotation Yrotation Zrotation
					JOINT Head
					{
						OFFSET 0.000000 9.051102 1.034000
						CHANNELS 3 Xrotation Yrotation Zrotation
						JOINT HairB
						{
							OFFSET 0.208400 24.786102 24.822300
							CHANNELS 3 Xrotation Yrotation Zrotation
							End Site
							{
								OFFSET 0.000000 32.263779 0.000000
							}
						}
						JOINT HairA
						{
							OFFSET -7.081100 24.428299 23.196600
							CHANNELS 3 Xrotation Yrotation Zrotation
							End Site
							{
								OFFSET 0.000000 32.263779 0.000000
							}
						}
						JOINT Hat
						{
							OFFSET 16.728800 15.048294 -15.439601
							CHANNELS 3 Xrotation Yrotation Zrotation
							End Site
							{
								OFFSET 0.000000 32.263779 0.000000
							}
						}
					}
				}
				JOINT LeftShoulder
				{
					OFFSET 6.197800 13.665199 -4.064700
					CHANNELS 3 Xrotation Yrotation Zrotation
					JOINT LeftArm
					{
						OFFSET 7.778100 -0.187103 -1.709300
						CHANNELS 3 Xrotation Yrotation Zrotation
						JOINT LeftForeArm
						{
							OFFSET 22.049376 0.000000 0.000000
							CHANNELS 3 Xrotation Yrotation Zrotation
							JOINT LeftHand
							{
								OFFSET 23.009392 0.000000 0.000000
								CHANNELS 3 Xrotation Yrotation Zrotation
								JOINT LeftHandThumb1
								{
									OFFSET 3.507191 -2.063065 3.133727
									CHANNELS 3 Xrotation Yrotation Zrotation
									JOINT LeftHandThumb2
									{
										OFFSET 3.101337 -1.790558 1.790558
										CHANNELS 3 Xrotation Yrotation Zrotation
										JOINT LeftHandThumb3
										{
											OFFSET 3.058640 -1.765907 1.765906
											CHANNELS 3 Xrotation Yrotation Zrotation
											End Site
											{
												OFFSET -0.415260 3.926476 -0.049563
											}
										}
									}
								}
								JOINT LeftHandIndex1
								{
									OFFSET 11.334419 -0.901459 3.706815
									CHANNELS 3 Xrotation Yrotation Zrotation
									JOINT LeftHandIndex2
									{
										OFFSET 3.283112 0.000000 0.000000
										CHANNELS 3 Xrotation Yrotation Zrotation
										JOINT LeftHandIndex3
										{
											OFFSET 3.323853 0.000000 0.000000
											CHANNELS 3 Xrotation Yrotation Zrotation
											End Site
											{
												OFFSET -1.135597 3.097809 0.402452
											}
										}
									}
								}
								JOINT LeftHandMiddle1
								{
									OFFSET 11.335861 0.000000 0.000000
									CHANNELS 3 Xrotation Yrotation Zrotation
									JOINT LeftHandMiddle2
									{
										OFFSET 3.410492 0.000000 0.000000
										CHANNELS 3 Xrotation Yrotation Zrotation
										JOINT LeftHandMiddle3
										{
											OFFSET 3.312172 0.000000 0.000000
											CHANNELS 3 Xrotation Yrotation Zrotation
											End Site
											{
												OFFSET -1.150200 3.080154 0.400270
											}
										}
									}
								}
								JOINT LeftHandRing1
								{
									OFFSET 11.514786 -0.013176 -3.003090
									CHANNELS 3 Xrotation Yrotation Zrotation
									JOINT LeftHandRing2
									{
										OFFSET 3.053307 0.000000 0.000000
										CHANNELS 3 Xrotation Yrotation Zrotation
										JOINT LeftHandRing3
										{
											OFFSET 3.295807 0.000000 0.000000
											CHANNELS 3 Xrotation Yrotation Zrotation
											End Site
											{
												OFFSET -1.281006 3.013344 0.375733
											}
										}
									}
								}
								JOINT LeftHandPinky1
								{
									OFFSET 10.518692 -0.960396 -5.730441
									CHANNELS 3 Xrotation Yrotation Zrotation
									JOINT LeftHandPinky2
									{
										OFFSET 2.861649 0.000000 0.000000
										CHANNELS 3 Xrotation Yrotation Zrotation
										JOINT LeftHandPinky3
										{
											OFFSET 2.863380 0.000000 0.000000
											CHANNELS 3 Xrotation Yrotation Zrotation
											End Site
											{
												OFFSET -0.843597 2.711159 0.369971
											}
										}
									}
								}
							}
							JOINT LSleeve
							{
								OFFSET 6.676277 -0.344902 -1.011730
								CHANNELS 3 Xrotation Yrotation Zrotation
								End Site
								{
									OFFSET 0.000000 14.885353 0.000000
								}
							}
						}
					}
				}
				JOINT RightShoulder
				{
					OFFSET -6.197800 13.665199 -4.064700
					CHANNELS 3 Xrotation Yrotation Zrotation
					JOINT RightArm
					{
						OFFSET -7.778100 -0.187103 -1.709300
						CHANNELS 3 Xrotation Yrotation Zrotation
						JOINT RightForeArm
						{
							OFFSET -22.049376 0.000000 0.000000
							CHANNELS 3 Xrotation Yrotation Zrotation
							JOINT RightHand
							{
								OFFSET -23.009392 0.000000 0.000000
								CHANNELS 3 Xrotation Yrotation Zrotation
								JOINT RightHandThumb1
								{
									OFFSET -3.507191 -2.063065 3.133727
									CHANNELS 3 Xrotation Yrotation Zrotation
									JOINT RightHandThumb2
									{
										OFFSET -3.101337 -1.790558 1.790558
										CHANNELS 3 Xrotation Yrotation Zrotation
										JOINT RightHandThumb3
										{
											OFFSET -3.058640 -1.765907 1.765906
											CHANNELS 3 Xrotation Yrotation Zrotation
											End Site
											{
												OFFSET 0.415260 3.926476 -0.049563
											}
										}
									}
								}
								JOINT RightHandIndex1
								{
									OFFSET -11.334419 -0.901459 3.706815
									CHANNELS 3 Xrotation Yrotation Zrotation
									JOINT RightHandIndex2
									{
										OFFSET -3.283112 0.000000 0.000000
										CHANNELS 3 Xrotation Yrotation Zrotation
										JOINT RightHandIndex3
										{
											OFFSET -3.323853 0.000000 0.000000
											CHANNELS 3 Xrotation Yrotation Zrotation
											End Site
											{
												OFFSET 1.135597 3.097809 0.402452
											}
										}
									}
								}
								JOINT RightHandMiddle1
								{
									OFFSET -11.335861 0.000000 0.000000
									CHANNELS 3 Xrotation Yrotation Zrotation
									JOINT RightHandMiddle2
									{
										OFFSET -3.410492 0.000000 0.000000
										CHANNELS 3 Xrotation Yrotation Zrotation
										JOINT RightHandMiddle3
										{
											OFFSET -3.312172 0.000000 0.000000
											CHANNELS 3 Xrotation Yrotation Zrotation
											End Site
											{
												OFFSET 1.150200 3.080154 0.400270
											}
										}
									}
								}
								JOINT RightHandRing1
								{
									OFFSET -11.514786 -0.013176 -3.003090
									CHANNELS 3 Xrotation Yrotation Zrotation
									JOINT RightHandRing2
									{
										OFFSET -3.053307 0.000000 0.000000
										CHANNELS 3 Xrotation Yrotation Zrotation
										JOINT RightHandRing3
										{
											OFFSET -3.295807 0.000000 0.000000
											CHANNELS 3 Xrotation Yrotation Zrotation
											End Site
											{
												OFFSET 1.281006 3.013344 0.375733
											}
										}
									}
								}
								JOINT RightHandPinky1
								{
									OFFSET -10.518692 -0.960396 -5.730441
									CHANNELS 3 Xrotation Yrotation Zrotation
									JOINT RightHandPinky2
									{
										OFFSET -2.861649 0.000000 0.000000
										CHANNELS 3 Xrotation Yrotation Zrotation
										JOINT RightHandPinky3
										{
											OFFSET -2.863380 0.000000 0.000000
											CHANNELS 3 Xrotation Yrotation Zrotation
											End Site
											{
												OFFSET 0.843597 2.711159 0.369971
											}
										}
									}
								}
							}
							JOINT RSleeve
							{
								OFFSET -6.676277 -0.344902 -1.011730
								CHANNELS 3 Xrotation Yrotation Zrotation
								End Site
								{
									OFFSET 0.000000 14.885353 0.000000
								}
							}
						}
					}
				}
				JOINT Backpack
				{
					OFFSET 0.000000 -2.471497 36.677502
					CHANNELS 3 Xrotation Yrotation Zrotation
					End Site
					{
						OFFSET 0.000000 20.427315 0.000000
					}
				}
				JOINT Hood
				{
					OFFSET 0.000000 18.754097 -10.431000
					CHANNELS 3 Xrotation Yrotation Zrotation
					JOINT Hood1
					{
						OFFSET 0.000000 -5.011002 -7.685901
						CHANNELS 3 Xrotation Yrotation Zrotation
						End Site
						{
							OFFSET 0.000000 9.175140 0.000000
						}
					}
				}
				JOINT LHoodieString
				{
					OFFSET 5.250500 16.397697 3.089900
					CHANNELS 3 Xrotation Yrotation Zrotation
					JOINT LHoodieString1
					{
						OFFSET 0.257700 -6.364304 3.694600
						CHANNELS 3 Xrotation Yrotation Zrotation
						JOINT LHoodieString2
						{
							OFFSET 0.000000 -9.643799 2.679100
							CHANNELS 3 Xrotation Yrotation Zrotation
							End Site
							{
								OFFSET 0.000000 10.009018 0.000000
							}
						}
					}
				}
				JOINT RHoodieString
				{
					OFFSET -5.250500 16.397697 3.089900
					CHANNELS 3 Xrotation Yrotation Zrotation
					JOINT RHoodieString1
					{
						OFFSET -0.257700 -6.364304 3.694600
						CHANNELS 3 Xrotation Yrotation Zrotation
						JOINT RHoodieString2
						{
							OFFSET 0.000000 -9.643799 2.679100
							CHANNELS 3 Xrotation Yrotation Zrotation
							End Site
							{
								OFFSET 0.000000 10.009018 0.000000
							}
						}
					}
				}
			}
			JOINT LBackpack_Strap
			{
				OFFSET 15.223200 -7.719803 -6.610900
				CHANNELS 3 Xrotation Yrotation Zrotation
				End Site
				{
					OFFSET 0.000000 16.040596 0.000000
				}
			}
			JOINT RBackpack_Strap
			{
				OFFSET -15.223000 -7.719803 -6.610900
				CHANNELS 3 Xrotation Yrotation Zrotation
				End Site
				{
					OFFSET 0.000000 16.040596 0.000000
				}
			}
		}
	}
	JOINT BoyFacialAnim_Joint
	{
		OFFSET 1.000000 -82.208099 -1.550900
		CHANNELS 3 Xrotation Yrotation Zrotation
		End Site
		{
			OFFSET 0.000000 30.012791 0.000000
		}
	}
}
MOTION
Frames: 4
Frame Time: 0.016667
1.624094 66.751465 -69.834457 35.588772 -68.954735 27.579759 -0.000000 0.000001 -0.000000 -60.157540 -19.026202 21.739667 41.693274 -1.185557 10.365770 17.997818 1.008247 -6.535570 0.000001 -0.000000 0.000000 0.000001 -0.000000 0.000000 -0.000000 -0.000002 0.000002 -29.886736 6.897613 -20.292075 52.817986 -7.724253 -2.689039 -9.373887 -28.820396 33.010769 0.000000 -0.000000 -0.000000 0.000000 -0.000000 -0.000000 0.000001 0.000000 -0.000004 0.688773 9.702128 -3.005126 -1.602549 6.808459 -2.710775 -1.615874 2.233989 1.483568 13.856780 5.273888 -5.005343 3.706271 16.403027 6.692203 -0.000000 -0.000001 -0.000002 -0.000000 -0.000001 -0.000002 -0.000000 -0.000001 -0.000002 4.053405 5.979536 -12.991226 -54.011620 -35.171666 -50.958590 0.000339 -82.344767 0.000385 -61.076883 33.044363 41.897753 -14.557449 10.837958 12.229968 0.749533 -4.257868 13.305503 0.000002 0.000004 -0.000000 -0.809534 2.578169 -31.496447 3.095898 5.163784 -61.866972 0.000001 -0.000000 0.000002 -2.430840 1.729213 -41.460925 2.952355 5.084722 -60.259931 -0.000001 -0.000001 -0.000000 -6.054127 -0.166586 -49.857591 3.046241 5.137028 -61.313952 -0.000002 0.000002 -0.000005 -8.298309 -6.522664 -38.520146 2.848778 5.024404 -59.084401 -0.000001 -0.000001 -0.000002 -0.000001 0.000002 0.000003 -14.532549 3.553445 -4.417814 79.542238 138.739092 -57.059752 -0.000015 34.452953 0.000012 -53.561374 -12.490260 -34.496635 8.377134 -4.904144 11.021987 21.620230 -18.183897 -18.379197 -0.000003 0.000001 -0.000003 0.558926 -4.406594 25.436654 1.653039 -3.560356 49.799094 -0.000001 0.000000 0.000000 10.969804 -12.875592 52.800825 6.387584 -4.324408 111.833713 0.000002 -0.000000 -0.000000 3.705082 -7.151322 57.622440 5.328199 -4.608684 98.293444 -0.000002 0.000000 0.000000 0.474820 -5.172970 58.987665 3.194328 -4.421949 71.674161 -0.000001 0.000000 0.000000 0.000002 -0.000000 0.000000 -0.000000 -0.000003 0.000001 -0.000000 -0.000003 0.000001 -0.000000 -0.000003 0.000001 -0.000000 -0.000003 0.000001 -0.000000 -0.000003 0.000001 -0.000000 -0.000003 0.000001 -0.000000 -0.000003 0.000001 -0.000000 -0.000003 0.000001 -0.000000 -0.000003 0.000001 -0.000000 0.000001 -0.000000 -0.000000 0.000001 -0.000000 -0.000000 0.000001 -0.000000 
2.003551 67.262665 -72.634750 34.520958 -68.112190 26.050475 0.000000 -0.000002 0.000001 -60.752299 -17.731041 21.158384 38.541839 -1.095858 10.198559 20.826121 0.705248 -5.027343 0.000002 0.000000 -0.000001 0.000002 0.000000 -0.000001 -0.000000 0.000003 -0.000001 -31.996800 4.884643 -20.068458 54.863518 -8.724000 0.120066 -11.741039 -26.436432 32.153027 0.000000 -0.000002 0.000000 0.000000 -0.000002 0.000000 -0.000003 0.000001 -0.000002 0.639723 8.691127 -2.157721 -1.626988 6.164446 -2.467200 -1.632766 1.585595 1.723307 13.643998 5.603237 -5.278000 3.496005 17.228928 6.531496 -0.000001 -0.000002 0.000000 -0.000001 -0.000002 0.000000 -0.000001 -0.000002 0.000000 3.999904 6.042622 -12.807237 -53.296038 -34.623001 -51.004431 0.000027 -82.387764 0.000032 -60.568253 31.239144 41.384174 -14.557445 10.837958 12.229969 0.749533 -4.257866 13.305500 0.000001 0.000003 0.000002 -0.809535 2.578169 -31.496441 3.095900 5.163787 -61.866972 -0.000000 -0.000000 -0.000000 -2.430837 1.729213 -41.460925 2.952357 5.084721 -60.259925 0.000001 -0.000003 -0.000000 -6.054128 -0.166586 -49.857587 3.046242 5.137026 -61.313952 -0.000003 -0.000000 -0.000002 -8.298308 -6.522666 -38.520143 2.848778 5.024402 -59.084401 -0.000001 0.000002 0.000002 -0.000001 -0.000000 0.000001 -14.624217 3.283238 -4.768789 77.652667 137.993495 -55.679900 -0.000003 33.172210 0.000001 -53.616261 -11.197030 -33.722693 8.377133 -4.904144 11.021988 21.620230 -18.183897 -18.379194 -0.000003 0.000001 -0.000004 0.558925 -4.406594 25.436661 1.653038 -3.560356 49.799097 -0.000000 0.000001 0.000000 10.969799 -12.875593 52.800815 6.387584 -4.324407 111.833713 0.000003 -0.000001 0.000001 3.705081 -7.151324 57.622447 5.328199 -4.608683 98.293444 -0.000000 0.000000 -0.000001 0.474817 -5.172969 58.987658 3.194328 -4.421950 71.674154 -0.000001 -0.000001 0.000000 0.000001 0.000001 -0.000001 -0.000001 -0.000001 0.000000 -0.000001 -0.000001 0.000000 -0.000001 -0.000001 0.000000 -0.000001 -0.000001 0.000000 -0.000001 -0.000001 0.000000 -0.000001 -0.000001 0.000000 -0.000001 -0.000001 0.000000 -0.000001 -0.000001 0.000000 -0.000001 -0.000001 0.000000 -0.000000 0.000004 -0.000000 -0.000000 0.000004 -0.000000 0.000000 -0.000002 0.000001 
2.405309 67.796036 -75.321815 33.510783 -67.167616 24.441750 -0.000000 0.000002 -0.000001 -61.974022 -16.020579 20.169316 36.710593 -1.271012 10.051550 22.186071 0.072532 -5.032053 -0.000001 0.000000 -0.000001 -0.000001 0.000000 -0.000001 0.000001 0.000000 0.000002 -33.642479 2.370090 -20.306952 56.216719 -10.011005 3.323087 -13.792700 -23.068568 31.180770 0.000000 -0.000000 0.000000 0.000000 -0.000000 0.000000 -0.000001 0.000000 -0.000000 0.630702 7.779951 -1.176155 -1.619449 5.518453 -2.231738 -1.616520 0.925567 1.956718 13.288395 5.956503 -5.383659 2.808262 18.062150 6.550447 -0.000003 0.000000 0.000000 -0.000003 0.000000 0.000000 -0.000003 0.000000 0.000000 3.900272 5.904399 -12.522477 -52.948695 -33.982807 -50.979856 0.000090 -82.394075 0.000065 -59.827437 29.409142 40.746993 -14.557447 10.837957 12.229975 0.749530 -4.257864 13.305499 -0.000002 0.000001 0.000000 -0.809535 2.578169 -31.496447 3.095900 5.163786 -61.866966 -0.000000 -0.000001 0.000001 -2.430840 1.729212 -41.460918 2.952358 5.084725 -60.259931 -0.000001 -0.000001 -0.000003 -6.054129 -0.166587 -49.857587 3.046242 5.137027 -61.313952 -0.000001 0.000002 -0.000002 -8.298310 -6.522669 -38.520146 2.848777 5.024403 -59.084408 -0.000001 0.000001 0.000003 -0.000001 0.000001 -0.000001 -14.701919 3.010188 -5.023190 75.541127 137.547716 -54.314641 -0.000021 31.733165 0.000010 -53.364999 -9.666778 -32.827624 8.377135 -4.904144 11.021988 21.620231 -18.183895 -18.379197 0.000002 0.000001 -0.000001 0.558925 -4.406594 25.436659 1.653039 -3.560356 49.799097 -0.000001 0.000000 0.000002 10.969801 -12.875592 52.800818 6.387584 -4.324409 111.833713 0.000001 -0.000000 0.000002 3.705082 -7.151322 57.622440 5.328199 -4.608683 98.293444 -0.000000 -0.000000 0.000000 0.474818 -5.172970 58.987665 3.194327 -4.421949 71.674147 -0.000000 -0.000000 0.000000 -0.000002 -0.000000 -0.000000 -0.000001 0.000000 -0.000000 -0.000001 0.000000 -0.000000 -0.000001 0.000000 -0.000000 -0.000001 0.000000 -0.000000 -0.000001 0.000000 -0.000000 -0.000001 -0.000001 0.000000 -0.000001 0.000000 -0.000000 -0.000001 0.000000 -0.000000 -0.000001 -0.000001 0.000000 -0.000000 0.000000 -0.000000 -0.000000 0.000000 -0.000000 -0.000000 0.000002 -0.000001 
2.775723 68.347733 -77.875244 32.886510 -66.376598 23.265871 -0.000000 0.000001 0.000000 -63.749400 -14.144434 18.695143 36.990529 -1.702296 9.916842 22.154656 -0.609418 -6.275491 -0.000001 -0.000001 -0.000000 -0.000001 -0.000001 -0.000000 0.000001 0.000000 -0.000000 -35.977414 -0.669190 -19.232764 57.757248 -10.046261 3.764750 -15.450392 -21.775495 28.411581 -0.000000 -0.000002 -0.000000 -0.000000 -0.000002 -0.000000 -0.000003 0.000000 0.000000 0.659916 7.096912 -0.339665 -1.604753 4.974525 -2.071099 -1.594767 0.362931 2.116385 12.920237 6.278295 -5.327307 1.884697 18.797656 6.755082 -0.000001 0.000002 -0.000000 -0.000001 0.000002 -0.000000 -0.000001 0.000002 -0.000000 3.777934 5.614922 -12.196084 -52.876493 -33.357158 -50.874514 0.000538 -82.402899 0.000555 -59.121182 27.942193 40.166655 -14.557449 10.837960 12.229973 0.749535 -4.257867 13.305499 0.000001 -0.000001 0.000001 -0.809534 2.578171 -31.496447 3.095901 5.163785 -61.866966 -0.000000 -0.000001 -0.000004 -2.430839 1.729215 -41.460922 2.952357 5.084721 -60.259931 0.000001 -0.000000 0.000000 -6.054129 -0.166583 -49.857587 3.046242 5.137027 -61.313952 -0.000003 0.000001 -0.000000 -8.298308 -6.522664 -38.520143 2.848780 5.024405 -59.084401 -0.000001 -0.000001 0.000003 0.000001 0.000001 0.000000 -14.751598 2.757339 -5.115945 73.753947 137.448145 -53.227606 -0.000005 30.448847 0.000004 -52.877900 -8.315527 -32.047750 8.377136 -4.904144 11.021984 21.620226 -18.183900 -18.379197 -0.000004 0.000000 -0.000000 0.558926 -4.406593 25.436661 1.653041 -3.560355 49.799097 -0.000001 -0.000000 0.000000 10.969801 -12.875590 52.800818 6.387584 -4.324408 111.833713 -0.000001 -0.000001 0.000001 3.705083 -7.151322 57.622447 5.328198 -4.608682 98.293444 -0.000000 -0.000001 0.000000 0.474820 -5.172969 58.987672 3.194328 -4.421949 71.674154 0.000000 -0.000001 0.000002 -0.000004 -0.000001 0.000000 -0.000001 0.000003 -0.000000 -0.000001 0.000003 -0.000000 -0.000001 0.000003 -0.000000 -0.000001 0.000003 -0.000000 -0.000001 0.000003 -0.000000 -0.000002 -0.000001 0.000001 -0.000001 0.000003 -0.000000 -0.000001 0.000003 -0.000000 -0.000002 -0.000001 0.000001 0.000001 0.000000 0.000000 0.000001 0.000000 0.000000 -0.000000 0.000001 0.000000 
